<svg width="262" height="152" viewBox="0 0 262 152" fill="none" xmlns="http://www.w3.org/2000/svg">
<g filter="url(#filter0_d_109_1755)">
<path d="M245.303 23.7154V100.464C245.303 104.721 241.856 108.179 237.586 108.179H227.603C223.346 108.179 219.887 111.626 219.887 115.895V128.285C219.887 132.542 216.44 136 212.17 136H24.4135C20.1555 136 16.6967 132.554 16.6967 128.285V23.7154C16.6967 19.4582 20.1436 16 24.4135 16H237.575C241.833 16 245.291 19.4463 245.291 23.7154H245.303Z" fill="url(#paint0_linear_109_1755)"/>
<path d="M244.291 24.7154H244.303V100.464C244.303 104.17 241.303 107.179 237.586 107.179H227.603C222.794 107.179 218.887 111.072 218.887 115.895V128.285C218.887 131.99 215.887 135 212.17 135H24.4135C20.7066 135 17.6967 132 17.6967 128.285V23.7154C17.6967 20.0097 20.6967 17 24.4135 17H237.575C241.281 17 244.291 19.9997 244.291 23.7154V24.7154Z" stroke="#005452" stroke-width="2"/>
</g>
<path d="M80.8653 98.3772V105.52C80.8653 107.142 79.5652 108.442 77.9431 108.442H44.5115C42.9968 108.442 41.6967 107.142 41.6967 105.52V46.337C41.6967 44.8225 42.9968 43.5227 44.5115 43.5227H77.9431C79.5652 43.5227 80.8653 44.8225 80.8653 46.337V53.5873C80.8653 55.1018 82.1653 56.4016 83.68 56.4016H90.8244C92.4465 56.4016 93.7465 57.7014 93.7465 59.2159V92.6413C93.7465 94.2631 92.4465 95.5629 90.8244 95.5629H83.68C82.1653 95.5629 80.8653 96.8627 80.8653 98.3772ZM77.4064 56.9382H57.9295C56.4147 56.9382 55.1147 58.238 55.1147 59.7525V92.1047C55.1147 93.7265 56.4147 95.0263 57.9295 95.0263H77.4064C79.0285 95.0263 80.3285 93.7265 80.3285 92.1047V59.7525C80.3285 58.238 79.0285 56.9382 77.4064 56.9382Z" fill="white"/>
<path d="M153.799 56.9501H120.905C119.282 56.9501 117.982 58.25 117.982 59.8717V66.4662C117.982 67.9807 119.282 69.2805 120.905 69.2805H140.918C142.433 69.2805 143.733 70.5803 143.733 72.2021V79.3451C143.733 80.8595 145.033 82.1593 146.655 82.1593H153.799C155.314 82.1593 156.614 83.4591 156.614 85.0809V92.7605C156.614 94.275 155.314 95.5748 153.799 95.5748H146.655C145.033 95.5748 143.733 96.8746 143.733 98.3891V105.639C143.733 107.154 142.433 108.454 140.918 108.454H107.487C105.864 108.454 104.564 107.154 104.564 105.639V97.9598C104.564 96.338 105.864 95.0382 107.487 95.0382H140.382C141.896 95.0382 143.196 93.7384 143.196 92.2239V85.6295C143.196 84.0077 141.896 82.7079 140.382 82.7079H120.368C118.746 82.7079 117.446 81.4081 117.446 79.8936V72.7506C117.446 71.1288 116.253 69.829 114.631 69.829H107.487C105.864 69.829 104.564 68.5292 104.564 67.0147V59.3351C104.564 57.7133 105.864 56.4135 107.487 56.4135H114.631C116.253 56.4135 117.446 55.1137 117.446 53.5993V46.4563C117.446 44.8345 118.746 43.5347 120.368 43.5347H153.799C155.314 43.5347 156.614 44.8345 156.614 46.4563V54.1359C156.614 55.6503 155.314 56.9501 153.799 56.9501Z" fill="white"/>
<path d="M180.85 105.627C180.85 107.142 179.55 108.442 178.035 108.442H170.354C168.732 108.442 167.432 107.142 167.432 105.627V85.069C167.432 83.4472 168.732 82.1474 170.354 82.1474H177.499C179.121 82.1474 180.313 80.8476 180.313 79.3331V72.7387C180.313 71.1169 179.121 69.8171 177.499 69.8171H170.354C168.732 69.8171 167.432 68.5173 167.432 67.0028V59.3232C167.432 57.7014 168.732 56.4016 170.354 56.4016H177.499C179.121 56.4016 180.313 55.1018 180.313 53.5873V46.4443C180.313 44.8225 181.613 43.5227 183.236 43.5227H216.667C218.182 43.5227 219.482 44.8225 219.482 46.4443V54.1239C219.482 55.6384 218.182 56.9382 216.667 56.9382H183.772C182.15 56.9382 180.85 58.238 180.85 59.8598V66.4543C180.85 67.9687 182.15 69.2685 183.772 69.2685H203.786C205.301 69.2685 206.601 70.5683 206.601 72.1901V79.8698C206.601 81.3842 205.301 82.684 203.786 82.684H183.772C182.15 82.684 180.85 83.9838 180.85 85.6056V105.627Z" fill="white"/>
<defs>
<filter id="filter0_d_109_1755" x="0.696686" y="0" width="260.607" height="152" filterUnits="userSpaceOnUse" color-interpolation-filters="sRGB">
<feFlood flood-opacity="0" result="BackgroundImageFix"/>
<feColorMatrix in="SourceAlpha" type="matrix" values="0 0 0 0 0 0 0 0 0 0 0 0 0 0 0 0 0 0 127 0" result="hardAlpha"/>
<feOffset/>
<feGaussianBlur stdDeviation="8"/>
<feComposite in2="hardAlpha" operator="out"/>
<feColorMatrix type="matrix" values="0 0 0 0 0 0 0 0 0 0 0 0 0 0 0 0 0 0 0.24 0"/>
<feBlend mode="normal" in2="BackgroundImageFix" result="effect1_dropShadow_109_1755"/>
<feBlend mode="normal" in="SourceGraphic" in2="effect1_dropShadow_109_1755" result="shape"/>
</filter>
<linearGradient id="paint0_linear_109_1755" x1="245.697" y1="16.0005" x2="16.6967" y2="136" gradientUnits="userSpaceOnUse">
<stop stop-color="#007572"/>
<stop offset="1" stop-color="#133D3C"/>
</linearGradient>
</defs>
</svg>
