<svg width="40" height="40" viewBox="0 0 40 40" fill="none" xmlns="http://www.w3.org/2000/svg">
<circle cx="20" cy="20.0001" r="19.5" fill="#E6F2F1" stroke="#B2D2D2"/>
<path d="M31 12.0001V18.0001H25" stroke="#0E6664" stroke-width="2" stroke-linecap="round" stroke-linejoin="round"/>
<path d="M9 28.0001V22.0001H15" stroke="#0E6664" stroke-width="2" stroke-linecap="round" stroke-linejoin="round"/>
<path d="M11.51 17.0001C12.0172 15.5669 12.8791 14.2855 14.0155 13.2755C15.1518 12.2655 16.5255 11.5598 18.0083 11.2243C19.4911 10.8888 21.0348 10.9344 22.4952 11.3568C23.9556 11.7793 25.2853 12.5648 26.36 13.6401L31 18.0001M9 22.0001L13.64 26.3601C14.7147 27.4354 16.0444 28.2209 17.5048 28.6433C18.9652 29.0657 20.5089 29.1113 21.9917 28.7758C23.4745 28.4403 24.8482 27.7346 25.9845 26.7247C27.1209 25.7147 27.9828 24.4333 28.49 23.0001" stroke="#0E6664" stroke-width="2" stroke-linecap="round" stroke-linejoin="round"/>
</svg>
