<svg xmlns="http://www.w3.org/2000/svg" width="56" height="56" viewBox="0 0 56 56" fill="none">
  <path d="M28 30C29.1046 30 30 29.1046 30 28C30 26.8954 29.1046 26 28 26C26.8954 26 26 26.8954 26 28C26 29.1046 26.8954 30 28 30Z" stroke="#0E6664" stroke-width="4" stroke-linecap="round" stroke-linejoin="round"/>
  <path d="M28 16C29.1046 16 30 15.1046 30 14C30 12.8954 29.1046 12 28 12C26.8954 12 26 12.8954 26 14C26 15.1046 26.8954 16 28 16Z" stroke="#0E6664" stroke-width="4" stroke-linecap="round" stroke-linejoin="round"/>
  <path d="M28 44C29.1046 44 30 43.1046 30 42C30 40.8954 29.1046 40 28 40C26.8954 40 26 40.8954 26 42C26 43.1046 26.8954 44 28 44Z" stroke="#0E6664" stroke-width="4" stroke-linecap="round" stroke-linejoin="round"/>
</svg>